# xmcd
#
# Track frame offsets: 
#        150
#        30904
#        60529
#        78529
#        102529
#        116029
#        137029
#        169279
#        187279
#        210529
#        229654
#        246154
#        281404
#        300904
#
# Disc length: 4312 seconds
#
# Revision: 0
# Processed by: cddbd v1.5.2PL0 Copyright (c) Steve Scherf et al.
# Submitted via: ExactAudioCopy v0.99pb5
#
DISCID=c110d60e
DTITLE=March Of Heroes - La Chute
DYEAR=2011
DGENRE=Martial Industrial
TTITLE0=Introduction
TTITLE1=Leur Terre, Leur Sang
TTITLE2=La Guerre De L'Inconnu
TTITLE3=Un Appel Aux Armes
TTITLE4=Une Marche Pour La Gloire
TTITLE5=Collaborations
TTITLE6=Du Sang Sur Mes Mains
TTITLE7=Les Derniers Jours
TTITLE8=Pour Une Cause Perdue
TTITLE9=Parmi La Poussière Et Les Ruines
TTITLE10=L'Europe Après La Guerre
TTITLE11=La Chute
TTITLE12=La Liberation
TTITLE13=En La Memoire Des Disparus
EXTD=
EXTT0=
EXTT1=
EXTT2=
EXTT3=
EXTT4=
EXTT5=
EXTT6=
EXTT7=
EXTT8=
EXTT9=
EXTT10=
EXTT11=
EXTT12=
EXTT13=
PLAYORDER=
